<?xml version="1.0" encoding="UTF-8" standalone="no"?>
<!-- Created with Inkscape (http://www.inkscape.org/) -->

<svg
   width="105.32931mm"
   height="105.32931mm"
   viewBox="0 0 105.32931 105.32931"
   version="1.1"
   id="svg5"
   xml:space="preserve"
   inkscape:version="1.2.2 (732a01da63, 2022-12-09)"
   sodipodi:docname="initial-logo.svg"
   inkscape:export-filename="initial-logo.svg"
   inkscape:export-xdpi="144.68907"
   inkscape:export-ydpi="144.68907"
   xmlns:inkscape="http://www.inkscape.org/namespaces/inkscape"
   xmlns:sodipodi="http://sodipodi.sourceforge.net/DTD/sodipodi-0.dtd"
   xmlns="http://www.w3.org/2000/svg"
   xmlns:svg="http://www.w3.org/2000/svg"><sodipodi:namedview
     id="namedview7"
     pagecolor="#505050"
     bordercolor="#ffffff"
     borderopacity="1"
     inkscape:showpageshadow="0"
     inkscape:pageopacity="0"
     inkscape:pagecheckerboard="1"
     inkscape:deskcolor="#505050"
     inkscape:document-units="mm"
     showgrid="false"
     inkscape:zoom="1.4094354"
     inkscape:cx="69.176634"
     inkscape:cy="239.81233"
     inkscape:window-width="1920"
     inkscape:window-height="1009"
     inkscape:window-x="-8"
     inkscape:window-y="-8"
     inkscape:window-maximized="1"
     inkscape:current-layer="layer1" /><defs
     id="defs2" /><g
     inkscape:label="Layer 1"
     inkscape:groupmode="layer"
     id="layer1"
     transform="translate(-44.782871,-67.353432)"><path
       id="rect410"
       style="fill:#7b68ee;stroke-width:0.432153"
       d="m 54.097709,67.353432 h 86.699631 c 5.16042,0 9.31484,4.154417 9.31484,9.314837 V 163.3679 c 0,5.16042 -4.15442,9.31484 -9.31484,9.31484 H 54.097709 c -5.16042,0 -9.314838,-4.15442 -9.314838,-9.31484 V 76.668269 c 0,-5.16042 4.154418,-9.314837 9.314838,-9.314837 z" /><g
       id="g541"
       style="fill:#ffffff"><path
         id="circle241"
         style="stroke-width:0.264583"
         d="m 67.254954,156.79805 a 6.5865846,6.5865846 0 0 1 -6.586585,6.58658 6.5865846,6.5865846 0 0 1 -6.586584,-6.58658 6.5865846,6.5865846 0 0 1 6.586584,-6.58658 6.5865846,6.5865846 0 0 1 6.586585,6.58658 z" /><path
         id="circle245"
         style="stroke-width:0.264583"
         d="m 140.80901,83.24427 a 6.5865846,6.5865846 0 0 1 -6.58658,6.586585 6.5865846,6.5865846 0 0 1 -6.58659,-6.586585 6.5865846,6.5865846 0 0 1 6.58659,-6.586584 6.5865846,6.5865846 0 0 1 6.58658,6.586584 z" /><g
         id="g320"
         transform="rotate(-90,121.69563,125.29388)"
         style="fill:#ffffff"><path
           id="circle247"
           style="stroke-width:0.264583"
           d="m 143.34652,107.13563 a 6.5865846,6.5865846 0 0 1 -6.58659,6.58658 6.5865846,6.5865846 0 0 1 -6.58658,-6.58658 6.5865846,6.5865846 0 0 1 6.58658,-6.58659 6.5865846,6.5865846 0 0 1 6.58659,6.58659 z" /><path
           id="circle249"
           style="stroke-width:0.264583"
           d="m 143.34652,137.82715 a 6.5865846,6.5865846 0 0 1 -6.58659,6.58658 6.5865846,6.5865846 0 0 1 -6.58658,-6.58658 6.5865846,6.5865846 0 0 1 6.58658,-6.58659 6.5865846,6.5865846 0 0 1 6.58659,6.58659 z" /><path
           id="circle251"
           style="stroke-width:0.264583"
           d="m 120.06331,107.13562 a 6.5865846,6.5865846 0 0 1 -6.58659,6.58658 6.5865846,6.5865846 0 0 1 -6.58658,-6.58658 6.5865846,6.5865846 0 0 1 6.58658,-6.58658 6.5865846,6.5865846 0 0 1 6.58659,6.58658 z" /><path
           id="rect307"
           style="stroke-width:0.261551"
           d="m 113.61858,100.5404 h 23.33804 v 13.20483 h -23.33804 z" /><path
           id="rect313"
           style="stroke-width:0.300626"
           transform="rotate(90)"
           d="m 107.27222,-143.35077 h 30.90627 v 13.17317 h -30.90627 z" /></g><g
         id="g332"
         transform="rotate(180,98.716345,120.321)"
         style="fill:#ffffff"><path
           id="circle322"
           style="stroke-width:0.264583"
           d="m 143.34652,107.13563 a 6.5865846,6.5865846 0 0 1 -6.58659,6.58658 6.5865846,6.5865846 0 0 1 -6.58658,-6.58658 6.5865846,6.5865846 0 0 1 6.58658,-6.58659 6.5865846,6.5865846 0 0 1 6.58659,6.58659 z" /><path
           id="circle324"
           style="stroke-width:0.264583"
           d="m 143.34652,137.82715 a 6.5865846,6.5865846 0 0 1 -6.58659,6.58658 6.5865846,6.5865846 0 0 1 -6.58658,-6.58658 6.5865846,6.5865846 0 0 1 6.58658,-6.58659 6.5865846,6.5865846 0 0 1 6.58659,6.58659 z" /><path
           id="circle326"
           style="stroke-width:0.264583"
           d="m 120.06331,107.13562 a 6.5865846,6.5865846 0 0 1 -6.58659,6.58658 6.5865846,6.5865846 0 0 1 -6.58658,-6.58658 6.5865846,6.5865846 0 0 1 6.58658,-6.58658 6.5865846,6.5865846 0 0 1 6.58659,6.58658 z" /><path
           id="rect328"
           style="stroke-width:0.261551"
           d="m 113.61858,100.5404 h 23.33804 v 13.20483 h -23.33804 z" /><path
           id="rect330"
           style="stroke-width:0.300626"
           transform="rotate(90)"
           d="m 107.27222,-143.35077 h 30.90627 v 13.17317 h -30.90627 z" /></g><g
         id="g344"
         transform="rotate(-90,98.147748,121.85458)"
         style="fill:#ffffff"><path
           id="circle334"
           style="stroke-width:0.264583"
           d="m 143.34652,107.13563 a 6.5865846,6.5865846 0 0 1 -6.58659,6.58658 6.5865846,6.5865846 0 0 1 -6.58658,-6.58658 6.5865846,6.5865846 0 0 1 6.58658,-6.58659 6.5865846,6.5865846 0 0 1 6.58659,6.58659 z" /><path
           id="circle336"
           style="stroke-width:0.264583"
           d="m 143.34652,137.82715 a 6.5865846,6.5865846 0 0 1 -6.58659,6.58658 6.5865846,6.5865846 0 0 1 -6.58658,-6.58658 6.5865846,6.5865846 0 0 1 6.58658,-6.58659 6.5865846,6.5865846 0 0 1 6.58659,6.58659 z" /><path
           id="circle338"
           style="stroke-width:0.264583"
           d="m 120.06331,107.13562 a 6.5865846,6.5865846 0 0 1 -6.58659,6.58658 6.5865846,6.5865846 0 0 1 -6.58658,-6.58658 6.5865846,6.5865846 0 0 1 6.58658,-6.58658 6.5865846,6.5865846 0 0 1 6.58659,6.58658 z" /><path
           id="rect340"
           style="stroke-width:0.261551"
           d="m 113.61858,100.5404 h 23.33804 v 13.20483 h -23.33804 z" /><path
           id="rect342"
           style="stroke-width:0.300626"
           transform="rotate(90)"
           d="m 107.27222,-143.35077 h 30.90627 v 13.17317 h -30.90627 z" /></g><g
         id="g356"
         transform="rotate(90,109.33899,129.37063)"
         style="fill:#ffffff"><path
           id="circle346"
           style="stroke-width:0.264583"
           d="m 143.34652,107.13563 a 6.5865846,6.5865846 0 0 1 -6.58659,6.58658 6.5865846,6.5865846 0 0 1 -6.58658,-6.58658 6.5865846,6.5865846 0 0 1 6.58658,-6.58659 6.5865846,6.5865846 0 0 1 6.58659,6.58659 z" /><path
           id="circle348"
           style="stroke-width:0.264583"
           d="m 143.34652,137.82715 a 6.5865846,6.5865846 0 0 1 -6.58659,6.58658 6.5865846,6.5865846 0 0 1 -6.58658,-6.58658 6.5865846,6.5865846 0 0 1 6.58658,-6.58659 6.5865846,6.5865846 0 0 1 6.58659,6.58659 z" /><path
           id="circle350"
           style="stroke-width:0.264583"
           d="m 120.06331,107.13562 a 6.5865846,6.5865846 0 0 1 -6.58659,6.58658 6.5865846,6.5865846 0 0 1 -6.58658,-6.58658 6.5865846,6.5865846 0 0 1 6.58658,-6.58658 6.5865846,6.5865846 0 0 1 6.58659,6.58658 z" /><path
           id="rect352"
           style="stroke-width:0.261551"
           d="m 113.61858,100.5404 h 23.33804 v 13.20483 h -23.33804 z" /><path
           id="rect354"
           style="stroke-width:0.300626"
           transform="rotate(90)"
           d="m 107.27222,-143.35077 h 30.90627 v 13.17317 h -30.90627 z" /></g></g></g></svg>
